<svg id="visual" viewBox="0 0 2000 1300" width="2000" height="1300" xmlns="http://www.w3.org/2000/svg" xmlns:xlink="http://www.w3.org/1999/xlink" version="1.1"><rect x="0" y="0" width="2000" height="1300" fill="#f6f2fc"></rect><defs><linearGradient id="grad1_0" x1="35%" y1="100%" x2="100%" y2="0%"><stop offset="19.230769230769226%" stop-color="#22aa54" stop-opacity="1"></stop><stop offset="80.76923076923077%" stop-color="#22aa54" stop-opacity="1"></stop></linearGradient></defs><defs><linearGradient id="grad1_1" x1="35%" y1="100%" x2="100%" y2="0%"><stop offset="19.230769230769226%" stop-color="#22aa54" stop-opacity="1"></stop><stop offset="80.76923076923077%" stop-color="#5dd1f1" stop-opacity="1"></stop></linearGradient></defs><defs><linearGradient id="grad1_2" x1="35%" y1="100%" x2="100%" y2="0%"><stop offset="19.230769230769226%" stop-color="#f6f2fc" stop-opacity="1"></stop><stop offset="80.76923076923077%" stop-color="#5dd1f1" stop-opacity="1"></stop></linearGradient></defs><defs><linearGradient id="grad2_0" x1="0%" y1="100%" x2="65%" y2="0%"><stop offset="19.230769230769226%" stop-color="#22aa54" stop-opacity="1"></stop><stop offset="80.76923076923077%" stop-color="#22aa54" stop-opacity="1"></stop></linearGradient></defs><defs><linearGradient id="grad2_1" x1="0%" y1="100%" x2="65%" y2="0%"><stop offset="19.230769230769226%" stop-color="#5dd1f1" stop-opacity="1"></stop><stop offset="80.76923076923077%" stop-color="#22aa54" stop-opacity="1"></stop></linearGradient></defs><defs><linearGradient id="grad2_2" x1="0%" y1="100%" x2="65%" y2="0%"><stop offset="19.230769230769226%" stop-color="#5dd1f1" stop-opacity="1"></stop><stop offset="80.76923076923077%" stop-color="#f6f2fc" stop-opacity="1"></stop></linearGradient></defs><g transform="translate(2000, 1300)"><path d="M-775.2 0C-791.5 -123.7 -807.8 -247.3 -716.2 -296.7C-624.7 -346 -425.4 -321.1 -323.9 -323.9C-222.4 -326.6 -218.7 -357.1 -181 -437C-143.3 -516.8 -71.7 -646 0 -775.2L0 0Z" fill="#c3ddff"></path><path d="M-516.8 0C-527.7 -82.4 -538.5 -164.9 -477.5 -197.8C-416.5 -230.7 -283.6 -214.1 -215.9 -215.9C-148.2 -217.8 -145.8 -238.1 -120.7 -291.3C-95.6 -344.6 -47.8 -430.7 0 -516.8L0 0Z" fill="#00c2b5"></path><path d="M-258.4 0C-263.8 -41.2 -269.3 -82.4 -238.7 -98.9C-208.2 -115.3 -141.8 -107 -108 -108C-74.1 -108.9 -72.9 -119 -60.3 -145.7C-47.8 -172.3 -23.9 -215.3 0 -258.4L0 0Z" fill="#22aa54"></path></g><g transform="translate(0, 0)"><path d="M775.2 0C631.1 53.8 486.9 107.6 446.2 184.8C405.5 262 468.2 362.6 463.2 463.2C458.1 563.7 385.2 664.2 296.7 716.2C208.2 768.2 104.1 771.7 0 775.2L0 0Z" fill="#c3ddff"></path><path d="M516.8 0C420.7 35.9 324.6 71.8 297.5 123.2C270.3 174.7 312.2 241.7 308.8 308.8C305.4 375.8 256.8 442.8 197.8 477.5C138.8 512.2 69.4 514.5 0 516.8L0 0Z" fill="#00c2b5"></path><path d="M258.4 0C210.4 17.9 162.3 35.9 148.7 61.6C135.2 87.3 156.1 120.9 154.4 154.4C152.7 187.9 128.4 221.4 98.9 238.7C69.4 256.1 34.7 257.2 0 258.4L0 0Z" fill="#22aa54"></path></g></svg>